<svg width="103" height="97" viewBox="0 0 103 97" fill="none" xmlns="http://www.w3.org/2000/svg">
<path d="M12.5413 91.0909C12.5413 87.29 12.5413 83.6353 12.5047 79.9805C12.5047 79.7247 12.1027 79.3226 11.8103 79.213C9.72714 78.2993 7.82667 77.1298 6.10894 75.6314C2.63694 72.5614 1.13849 68.6142 0.955753 64.0824C0.919206 62.9494 0.955753 61.8164 1.0654 60.72C1.21159 59.1485 2.4542 58.2713 3.9161 58.8195C8.99619 60.7565 13.1261 63.7534 14.99 69.1625C15.0631 69.3817 15.1362 69.601 15.2824 69.9665C16.927 64.3382 20.9472 61.2317 25.9177 59.0754C27.9643 58.1982 29.3166 58.9657 29.4993 61.1951C29.6821 63.6803 29.4628 66.129 28.7684 68.5046C27.3065 73.5116 23.871 76.7278 19.266 78.8475C18.1331 79.3592 17.8041 79.944 17.8407 81.15C17.9138 84.4393 17.8772 87.7286 17.8772 91.0909C28.2567 91.0909 38.5631 91.0909 48.906 91.0909C48.9426 90.9082 48.9791 90.6889 48.9791 90.5062C48.9791 87.1073 48.9791 83.6718 48.9791 80.2729C48.9791 79.7247 48.7598 79.5054 48.3213 79.2496C46.6035 78.2993 44.8127 77.3856 43.2777 76.2161C39.1113 73.073 37.5032 68.6142 37.3205 63.5342C37.2839 62.6205 37.2839 61.7068 37.3936 60.7931C37.5398 59.185 38.8189 58.2713 40.3174 58.8561C45.434 60.8296 49.5639 63.8631 51.3547 69.3452C51.3912 69.4548 51.4278 69.5645 51.4643 69.6741C51.5009 69.7107 51.5374 69.7472 51.6471 69.8569C53.2917 64.3382 57.3485 61.2317 62.3555 59.0388C64.329 58.1982 65.7178 59.0754 65.8275 61.2317C65.9737 64.192 65.7544 67.0793 64.658 69.8569C62.9402 74.2426 59.651 77.0202 55.4846 78.9206C54.4612 79.3957 54.1323 79.8709 54.1323 81.0038C54.2419 84.0007 54.1689 87.0342 54.1689 90.0311C54.1689 90.36 54.1689 90.6889 54.1689 91.0909C64.5483 91.0909 74.8547 91.0909 85.3073 91.0909C85.3073 90.5427 85.3073 89.9945 85.3073 89.4463C85.3073 86.4129 85.3073 83.3429 85.3073 80.3094C85.3073 79.7247 85.1245 79.5054 84.6129 79.213C82.8586 78.2262 81.0678 77.3125 79.4962 76.1065C75.5491 73.1096 73.941 68.8701 73.6487 64.0093C73.5756 62.9859 73.6121 61.9261 73.6487 60.9027C73.7583 59.1485 75.1471 58.1982 76.7917 58.8926C81.8718 60.9393 85.9651 64.0093 87.7194 69.5279C87.756 69.601 87.7925 69.6741 87.8656 69.7107C88.4504 68.5411 88.8889 67.3351 89.5833 66.2387C91.8493 62.5474 95.3213 60.3545 99.2684 58.8195C100.657 58.2713 102.046 59.2581 102.156 60.72C102.302 63.2418 102.229 65.7635 101.534 68.2488C100.146 73.3654 96.7101 76.6912 92.032 78.811C90.7894 79.3957 90.4605 80.017 90.497 81.2962C90.6067 84.1469 90.5336 87.0342 90.5336 89.8849C90.5336 90.2138 90.5336 90.5427 90.5336 90.9813C90.9356 90.9813 91.2645 90.9813 91.5934 90.9813C94.3711 90.9813 97.1487 90.9813 99.8897 90.9813C101.644 90.9813 102.704 91.8584 102.96 93.3569C103.216 94.8553 102.229 96.2441 100.694 96.4269C100.292 96.4999 99.8532 96.5 99.4146 96.5C67.4721 96.5 35.5296 96.5 3.58717 96.5C2.96586 96.5 2.30801 96.4634 1.6867 96.2807C0.590279 95.9152 -0.0675757 94.7822 0.00551923 93.5396C0.0786141 92.4432 0.882658 91.493 1.97908 91.2006C2.3811 91.0909 2.81967 91.0909 3.25824 91.0544C5.9993 91.0544 8.74036 91.0544 11.4814 91.0544C11.7738 91.0909 12.1027 91.0909 12.5413 91.0909Z" fill="white"/>
<path d="M40.829 27.3521C40.7925 21.5045 45.5437 16.7168 51.4278 16.7168C57.2754 16.7168 62.0997 21.468 62.0997 27.279C62.0997 33.1266 57.3485 37.9143 51.5009 37.9143C45.6168 37.9509 40.8656 33.2362 40.829 27.3521Z" fill="white"/>
<path d="M68.3858 47.1244C67.728 46.7955 66.9605 46.5762 66.4488 46.1011C64.7676 44.5295 63.1961 42.9214 61.588 41.2768C60.3819 40.0342 60.4185 38.5357 61.5515 37.4028C62.6113 36.3794 64.2925 36.3794 65.4255 37.4393C67.1432 39.0839 68.7879 40.7651 70.469 42.4829C71.2731 43.2869 71.4924 44.2737 71.0172 45.3336C70.5421 46.3934 69.7015 46.9782 68.3858 47.1244Z" fill="white"/>
<path d="M72.004 24.611C73.1735 24.611 74.3796 24.5744 75.5491 24.611C76.9379 24.6841 77.9612 25.5247 78.2171 26.6942C78.4729 27.8637 77.9247 29.1063 76.9014 29.6545C76.6455 29.8007 76.3531 29.9104 76.0608 29.9469C73.3928 29.9834 70.7248 30.02 68.0569 29.9469C66.9239 29.9104 66.266 29.1429 65.9006 28.1195C65.5716 27.1327 65.8275 26.2556 66.4853 25.4881C67.1066 24.7937 67.9107 24.611 68.7878 24.611C69.8477 24.611 70.9076 24.611 72.004 24.611Z" fill="white"/>
<path d="M48.7598 6.7029C48.7598 5.53338 48.7598 4.40041 48.7598 3.23089C48.7964 1.6959 49.9293 0.562928 51.4278 0.562928C52.8897 0.526381 54.1323 1.58626 54.1689 3.0847C54.2419 5.53338 54.2419 8.01861 54.1689 10.4673C54.1323 11.9657 52.8531 13.0622 51.3912 12.9891C49.8928 12.916 48.7964 11.783 48.7964 10.248C48.7598 9.07849 48.7598 7.90897 48.7598 6.7029Z" fill="white"/>
<path d="M30.9612 24.6111C32.0942 24.6111 33.2272 24.5746 34.3236 24.6111C35.4931 24.6477 36.4433 25.1228 36.9184 26.2558C37.3205 27.2791 37.1743 28.2293 36.4799 29.0699C35.8951 29.8009 35.0911 30.0202 34.2139 30.0202C31.9845 30.0567 29.7917 30.0567 27.5623 30.0202C26.3562 30.0202 25.3695 29.5085 24.8578 28.339C24.4192 27.3156 24.602 26.3654 25.2964 25.5248C25.9177 24.7573 26.7583 24.5746 27.6354 24.5746C28.7684 24.6111 29.8648 24.6111 30.9612 24.6111Z" fill="white"/>
<path d="M48.7598 47.8188C48.7598 46.6493 48.7598 45.5164 48.7598 44.3468C48.7964 42.8484 49.9293 41.6789 51.4278 41.6789C52.8531 41.6423 54.1323 42.7387 54.1689 44.2006C54.2419 46.6859 54.2419 49.2076 54.1689 51.6929C54.1323 53.1548 52.8531 54.1781 51.3912 54.1416C49.9293 54.105 48.8329 53.0086 48.7964 51.5101C48.7598 50.231 48.7598 49.0249 48.7598 47.8188Z" fill="white"/>
<path d="M34.4698 47.0877C33.2272 46.9415 32.4231 46.3933 31.9115 45.37C31.3998 44.3467 31.6191 43.3599 32.35 42.5924C34.0678 40.8016 35.822 39.0107 37.6494 37.293C38.6727 36.3062 40.3905 36.4159 41.3772 37.4027C42.4371 38.4625 42.5468 39.9244 41.4869 41.0939C39.8057 42.8848 38.0514 44.6391 36.2606 46.3202C35.7855 46.7223 35.0545 46.8319 34.4698 47.0877Z" fill="white"/>
<path d="M39.3306 18.069C38.6727 17.7036 37.8687 17.4843 37.357 16.9726C35.749 15.4376 34.214 13.8295 32.679 12.2214C31.4729 10.9788 31.4729 9.44383 32.679 8.27431C33.7023 7.28753 35.3104 7.32407 36.4434 8.4205C38.1245 10.0651 39.7692 11.7098 41.4138 13.391C42.2179 14.195 42.4371 15.1818 41.962 16.2417C41.4869 17.3015 40.6463 17.8863 39.3306 18.069Z" fill="white"/>
<path d="M71.3096 10.6865C71.0903 11.052 70.8345 11.7829 70.3594 12.3311C68.7878 13.9758 67.1798 15.5838 65.5351 17.1919C64.4387 18.2518 62.6844 18.2518 61.6611 17.2285C60.5647 16.1321 60.5647 14.6336 61.7342 13.4275C63.3788 11.7098 65.06 10.0652 66.7777 8.384C67.6183 7.57995 68.6051 7.47031 69.6284 7.90888C70.6152 8.34745 71.2 9.18804 71.3096 10.6865Z" fill="white"/>
</svg>
