<svg width="89" height="73" viewBox="0 0 89 73" fill="none" xmlns="http://www.w3.org/2000/svg">
<path d="M38.6176 33.1097C27.7584 33.0471 18.7142 41.9661 18.6516 52.794C18.589 63.9975 27.3515 72.8852 38.4924 72.9791C49.4455 73.0729 58.4897 64.154 58.5523 53.2322C58.6149 42.1226 49.7272 33.141 38.6176 33.1097ZM51.9491 51.2606H47.7556V54.6091H51.9491V58.9904H47.7556V64.154H46.5664L41.5906 58.9904L37.3658 54.6091L34.1425 51.2606L33.9547 51.0728V64.154H29.4796V58.9904H25.2861V54.6091H29.4796V51.2606H25.2861V46.8793H29.4796V41.7157H30.8878L35.9888 46.8793L40.3075 51.2606L43.2805 54.2649V41.7157H47.7556V46.8793H51.9491V51.2606Z" fill="white"/>
<path d="M4.25607 46.8168C4.00571 46.7542 3.84924 46.7229 3.66147 46.6916C1.53344 46.3786 0 44.6574 0 42.4981C0 37.6161 0 32.7342 0 27.8835C0 25.599 0 23.2832 0 20.9987C0 19.0584 1.1892 17.6502 3.09817 17.525C5.00714 17.3998 6.91612 17.4624 8.79379 17.4624C9.04415 17.4624 9.3258 17.7441 9.48228 17.9631C10.4211 19.3088 11.36 20.6545 12.3301 22.094C13.2689 20.717 14.2078 19.434 15.084 18.1196C15.4283 17.5876 15.8038 17.3998 16.4297 17.4311C17.7754 17.4937 19.1523 17.3685 20.498 17.5563C21.2491 17.6815 22.1566 18.0883 22.626 18.6829C25.8494 22.6886 29.0101 26.7882 32.1709 30.8878C32.2022 30.9504 32.2335 31.013 32.2022 30.9817C30.0741 31.9831 27.9461 32.9532 25.6929 34.0173C24.3785 32.2961 22.9077 30.4497 21.3429 28.4468C21.3116 28.8536 21.3116 29.0727 21.3116 29.2918C21.3116 32.0144 21.3429 34.7057 21.2804 37.4284C21.2804 37.8665 21.1239 38.3672 20.8422 38.6802C14.1139 47.161 13.9887 58.6148 20.6858 67.1583C21.3742 68.0345 21.4055 68.9108 21.1552 69.8496C20.6545 71.6021 19.121 72.8539 17.4311 72.9791C15.4283 73.1043 13.8635 72.1654 13.0499 70.3503C12.956 70.1 12.8621 69.8809 12.7369 69.5367C12.1736 71.1953 11.2661 72.3845 9.54486 72.8539C6.88482 73.5737 4.19348 71.5395 4.19348 68.8169C4.19348 61.8069 4.19348 54.7969 4.19348 47.7869C4.25607 47.4427 4.25607 47.1297 4.25607 46.8168Z" fill="white"/>
<path d="M66.4698 18.6203C60.6177 18.6203 54.7343 18.589 48.8822 18.6203C47.2862 18.6203 46.2221 17.9944 46.3473 16.0854C46.4099 14.9588 46.3473 13.8322 46.3473 12.7369C46.3473 11.5477 46.9732 10.8279 48.1624 10.7027C48.3815 10.6714 48.6318 10.6714 48.8509 10.6714C60.5551 10.6714 72.2593 10.6714 83.9635 10.6714C84.3077 10.6714 84.652 10.7027 84.9649 10.7653C85.8724 10.9531 86.4045 11.579 86.4358 12.5178C86.467 13.8948 86.467 15.2718 86.4358 16.6487C86.4358 17.744 85.8411 18.4012 84.7458 18.5577C84.4329 18.589 84.1199 18.589 83.807 18.589C78.0488 18.6203 72.2593 18.6203 66.4698 18.6203Z" fill="white"/>
<path d="M68.1597 27.7271C62.2763 27.7271 56.3616 27.7271 50.4782 27.7271C48.6944 27.7271 48.0685 27.1012 48.0685 25.3174C48.0685 24.1595 48.0685 23.0329 48.0685 21.875C48.0685 20.5919 48.7257 19.9034 50.0088 19.8095C50.1966 19.8095 50.3843 19.8095 50.5408 19.8095C62.2763 19.8095 74.0118 19.8095 85.7473 19.8095C86.1854 19.8095 86.6548 19.8095 87.0617 19.966C87.8127 20.2476 88.1883 20.8735 88.1883 21.6872C88.1883 23.0016 88.1883 24.3472 88.1883 25.6616C88.1883 26.976 87.4685 27.6645 86.1541 27.6958C85.0275 27.7271 83.9009 27.6958 82.8056 27.6958C77.8923 27.7271 73.0417 27.7271 68.1597 27.7271Z" fill="white"/>
<path d="M40.7456 30.3245C41.0273 29.4795 41.5906 29.0727 42.3729 28.9788C42.592 28.9475 42.8423 28.9475 43.0614 28.9475C54.8282 28.9475 66.5637 28.9475 78.3305 28.9788C78.9564 28.9788 79.6448 29.1666 80.1456 29.5108C80.4898 29.7612 80.7089 30.3871 80.7402 30.8565C80.8027 32.2022 80.7715 33.5791 80.7715 34.9248C80.7715 36.0201 80.1143 36.7399 79.0189 36.8338C78.7686 36.8651 78.4869 36.8651 78.2366 36.8651C70.6633 36.8651 63.0587 36.8651 55.4854 36.8651C54.8908 36.8651 54.484 36.7086 54.0458 36.3017C50.3844 32.9532 46.0657 30.9817 41.1211 30.3871C41.0273 30.3871 40.9334 30.3558 40.7456 30.3245Z" fill="white"/>
<path d="M61.5252 55.1099C61.3062 52.4498 61.0871 49.915 60.868 47.2236C60.9932 47.2236 61.2749 47.2236 61.5252 47.2236C68.9421 47.2236 76.3902 47.2236 83.807 47.2236C85.6221 47.2236 86.248 47.8182 86.248 49.6646C86.248 50.8225 86.248 51.9491 86.248 53.107C86.248 54.3275 85.5282 55.1099 84.339 55.1099C76.7657 55.1099 69.1611 55.1099 61.5878 55.1099C61.5252 55.1412 61.4939 55.1099 61.5252 55.1099Z" fill="white"/>
<path d="M58.4897 64.2478C58.7401 63.7158 59.0217 63.2777 59.1782 62.8396C59.8354 60.8993 60.4613 58.959 61.0559 56.9875C61.1811 56.5806 61.2749 56.3616 61.7444 56.3616C68.5979 56.3616 75.4514 56.3616 82.3049 56.3929C83.7132 56.3929 84.4017 57.1126 84.4017 58.5209C84.4017 59.804 84.4017 61.0871 84.4017 62.3388C84.4017 63.4029 83.7758 64.0913 82.7118 64.2478C82.4927 64.2791 82.3049 64.2791 82.0859 64.2791C74.45 64.2791 66.8141 64.2791 59.1782 64.2791C58.9904 64.2791 58.834 64.2478 58.4897 64.2478Z" fill="white"/>
<path d="M55.8296 38.0856C56.2677 38.0856 56.5181 38.0856 56.7685 38.0856C64.4982 38.0856 72.228 38.0856 79.9891 38.0856C80.2707 38.0856 80.5524 38.0856 80.834 38.1169C81.8981 38.2733 82.4927 38.9618 82.524 40.0258C82.524 41.3402 82.524 42.6233 82.524 43.9377C82.524 45.1582 81.8668 45.8779 80.6463 46.0031C80.4898 46.0031 80.3333 46.0031 80.1769 46.0031C73.7927 46.0031 67.4086 46.0031 61.0245 46.0031C60.4612 46.0031 60.2109 45.8466 60.0231 45.3146C59.3033 43.0614 58.0828 41.0586 56.6746 39.1809C56.4242 38.8679 56.2052 38.5863 55.8296 38.0856Z" fill="white"/>
<path d="M12.3614 0C16.4297 0 19.6843 3.22335 19.7156 7.22906C19.7469 11.2661 16.4297 14.5833 12.3614 14.5833C8.32436 14.5833 5.03842 11.3287 5.03842 7.29165C5.06972 3.25464 8.29306 0 12.3614 0Z" fill="white"/>
</svg>
