<svg width="92" height="92" viewBox="0 0 92 92" fill="none" xmlns="http://www.w3.org/2000/svg">
<path d="M82.2971 21.5465C79.3767 22.5536 76.5569 23.5606 73.7036 24.5341C64.8751 27.5889 56.0466 30.6772 47.218 33.7655C46.4124 34.034 45.7075 34.0676 44.9018 33.799C30.5681 28.7638 16.2007 23.7956 1.86699 18.7939C1.26276 18.5925 0.624955 18.1225 0.255701 17.619C-0.314964 16.7798 0.188564 15.7392 1.16205 15.4035C15.7643 10.3346 30.3667 5.23223 45.0025 0.196957C45.5732 -0.00445433 46.3117 -0.00445433 46.8488 0.196957C61.3839 5.23223 75.9191 10.2675 90.4543 15.3364C91.327 15.6385 91.9313 16.142 91.9984 17.0819C92.032 17.9211 91.5285 18.5254 90.4543 18.9282C89.2794 19.3646 88.1045 19.801 86.896 20.1702C86.426 20.3045 86.2246 20.5059 86.2246 21.043C86.2582 29.0994 86.2582 37.1559 86.2246 45.2123C86.2246 45.8837 86.5939 45.9844 87.0303 46.1522C92.1998 48.2335 93.6433 54.5108 89.8836 58.6062C87.3995 61.2916 83.3042 61.7616 80.0816 59.7139C77.1276 57.8341 75.852 53.8059 77.1947 50.5497C78.1011 48.3678 79.5781 46.79 81.8607 46.0515C82.0957 45.9844 82.3978 45.6151 82.3978 45.3802C82.4314 37.5923 82.4314 29.7708 82.3978 21.9829C82.3978 21.8151 82.3643 21.7479 82.2971 21.5465Z" fill="white"/>
<path d="M72.8308 28.9987C72.8308 29.435 72.8308 29.7372 72.8308 30.0393C72.8308 38.1964 72.7972 46.3871 72.8644 54.5443C72.8644 55.9206 72.2937 56.6591 71.1188 57.1962C64.5394 60.2174 57.6243 61.9965 50.3735 62.5C40.2022 63.205 30.4674 61.493 21.1353 57.2969C19.759 56.6927 19.1548 55.887 19.1883 54.3093C19.2555 46.2193 19.2219 38.1293 19.2219 30.0728C19.2219 29.7372 19.2219 29.4015 19.2219 28.9651C19.994 29.2336 20.6989 29.4686 21.3703 29.7036C28.7554 32.2548 36.1404 34.806 43.5255 37.3908C45.2375 37.995 46.8488 37.995 48.5943 37.3908C56.3487 34.6382 64.1366 31.9863 71.9245 29.3008C72.1594 29.2001 72.428 29.1329 72.8308 28.9987Z" fill="white"/>
<path d="M78.6717 63.3394C82.465 65.2528 86.1911 65.2528 90.0179 63.3394C90.0515 63.6415 90.085 63.8429 90.085 64.0779C90.085 72.235 90.085 80.3922 90.085 88.5829C90.085 90.2277 89.078 91.4698 87.4331 91.5705C85.3183 91.6712 83.1699 91.6376 81.0551 91.5369C79.6788 91.4698 78.6382 90.2277 78.6382 88.885C78.6382 80.4929 78.6382 72.1007 78.6382 63.7086C78.6046 63.6079 78.6046 63.5072 78.6717 63.3394Z" fill="white"/>
</svg>
