<svg width="108" height="109" viewBox="0 0 108 109" fill="none" xmlns="http://www.w3.org/2000/svg">
<path d="M60.173 48.7213C61.1686 48.7213 61.9983 48.7213 62.828 48.7213C65.6074 48.7213 68.4283 48.7213 71.2077 48.7213C72.0373 48.7213 72.8255 48.8458 73.2404 49.6755C73.6552 50.5051 73.2818 51.1689 72.784 51.8741C65.2755 61.7887 57.767 71.7032 50.3 81.6178C49.7192 82.406 49.0555 82.9453 48.0184 82.6134C47.0228 82.2815 46.8983 81.4519 46.8983 80.4977C46.8983 74.2337 46.8983 67.9697 46.8983 61.7472C46.8983 61.3323 46.8983 60.9175 46.8983 60.3782C46.4835 60.3782 46.1101 60.3367 45.7368 60.3367C42.9159 60.3367 40.0535 60.3367 37.2327 60.3367C36.3615 60.3367 35.5318 60.2538 35.117 59.3411C34.7436 58.5115 35.117 57.8062 35.6148 57.1425C43.3722 46.9376 51.1711 36.7741 58.8871 26.5691C59.4678 25.8224 60.173 25.3661 61.0857 25.698C61.9983 26.0299 62.2057 26.8181 62.1228 27.7307C61.5835 33.165 61.0857 38.5994 60.5464 44.0337C60.4634 45.5686 60.339 47.062 60.173 48.7213Z" fill="white"/>
<path d="M30.2219 32.9992C29.973 32.8332 29.3508 32.6258 28.936 32.211C24.7046 28.0626 20.5148 23.8313 16.325 19.6415C15.2049 18.5214 15.1634 17.1525 16.159 16.1569C17.1131 15.2857 18.4821 15.3687 19.5607 16.4473C23.709 20.5956 27.8574 24.744 32.0057 28.8923C32.7524 29.639 33.1673 30.5102 32.711 31.5887C32.3791 32.5843 31.6324 33.0407 30.2219 32.9992Z" fill="white"/>
<path d="M78.0939 32.9991C76.7664 32.9991 76.1027 32.5843 75.6879 31.7546C75.273 30.9664 75.3145 30.2197 75.8123 29.5145C75.9783 29.2656 76.1857 29.0167 76.3931 28.8093C80.5 24.6609 84.6483 20.5541 88.7967 16.4057C90.1241 15.0782 91.9079 15.2857 92.6961 16.8206C93.1524 17.7332 92.9865 18.6458 92.1154 19.5585C90.7464 20.9274 89.3774 22.2964 88.0085 23.6653C85.1876 26.4862 82.4082 29.3071 79.5458 32.0865C79.048 32.5428 78.3843 32.8332 78.0939 32.9991Z" fill="white"/>
<path d="M90.4975 93.1087C89.9582 92.7768 89.2945 92.5694 88.8796 92.1131C84.6483 87.9233 80.4585 83.7334 76.2687 79.5021C75.1901 78.382 75.1486 77.096 76.1027 76.1004C77.0154 75.1878 78.4673 75.2293 79.5044 76.2664C83.6942 80.4562 87.884 84.6046 92.0324 88.7944C92.7791 89.5411 93.1939 90.4123 92.7376 91.4908C92.3228 92.4864 91.5761 92.9428 90.4975 93.1087Z" fill="white"/>
<path d="M17.8184 93.1503C16.8228 92.9429 16.1175 92.528 15.7027 91.6983C15.2879 90.9102 15.3294 90.1635 15.8272 89.4582C15.9931 89.2093 16.2005 88.9604 16.4079 88.753C20.5148 84.6047 24.6632 80.4978 28.8115 76.3494C30.139 75.022 31.9228 75.2294 32.711 76.7643C33.1673 77.6769 33.0013 78.5896 32.1302 79.5022C30.6368 81.0371 29.1019 82.5305 27.6085 84.0654C24.9535 86.7203 22.2986 89.4168 19.6022 92.0302C19.1044 92.4865 18.4406 92.7769 17.8184 93.1503Z" fill="white"/>
<path d="M56.481 10.2247C56.481 12.6722 56.481 15.1197 56.481 17.5672C56.481 18.7288 55.7343 19.6414 54.6972 19.8488C53.6186 20.0563 52.5401 19.5999 52.1252 18.5628C51.9593 18.148 51.9178 17.6917 51.9178 17.2354C51.9178 12.5063 51.9178 7.77713 51.9178 3.04801C51.9178 1.43015 52.8305 0.393066 54.1994 0.393066C55.5684 0.393066 56.481 1.43015 56.481 3.04801C56.481 5.45406 56.481 7.8601 56.481 10.2247Z" fill="white"/>
<path d="M10.1439 51.9985C12.5914 51.9985 15.039 51.9985 17.4865 51.9985C18.5236 51.9985 19.2703 52.4963 19.6851 53.4504C20.0585 54.3216 19.934 55.1513 19.2703 55.732C18.7725 56.1469 17.9843 56.5202 17.362 56.5202C12.55 56.6032 7.73787 56.5617 2.96727 56.5617C1.34941 56.5617 0.353807 55.5661 0.395291 54.1971C0.436774 52.8697 1.43238 51.9985 3.00875 51.9985C5.37331 51.957 7.73787 51.957 10.1439 51.9985Z" fill="white"/>
<path d="M98.2549 51.9985C100.702 51.9985 103.15 51.9985 105.598 51.9985C106.635 51.9985 107.381 52.4549 107.796 53.409C108.169 54.3216 108.045 55.1928 107.298 55.7735C106.801 56.1884 106.012 56.5202 105.349 56.5202C100.578 56.5617 95.8074 56.5617 91.0368 56.5617C89.4189 56.5617 88.4233 55.5661 88.4648 54.1972C88.5063 52.8697 89.5019 51.9985 91.0783 51.9985C93.4843 51.9571 95.8904 51.9985 98.2549 51.9985Z" fill="white"/>
<path d="M51.8763 98.3356C51.8763 95.9711 51.8763 93.648 51.8763 91.2834C51.8763 89.5826 52.789 88.5455 54.1994 88.587C55.5684 88.6285 56.4395 89.6241 56.4395 91.2834C56.4395 96.054 56.4395 100.825 56.4395 105.595C56.4395 106.84 55.7343 107.752 54.7387 108.001C53.6601 108.25 52.5816 107.794 52.1667 106.798C52.0008 106.383 51.9178 105.886 51.9178 105.388C51.8763 103.023 51.8763 100.659 51.8763 98.3356Z" fill="white"/>
</svg>
