<svg width="78" height="78" viewBox="0 0 78 78" fill="none" xmlns="http://www.w3.org/2000/svg">
<path d="M78 0C78 17.0929 78 34.1498 78 51.2427C52 51.2427 26.0361 51.2427 0 51.2427C0 34.1859 0 17.129 0 0C25.9639 0 51.9279 0 78 0ZM51.0263 28.0194C56.5797 28.0194 62.1331 28.0194 67.6865 28.0194C68.8766 28.0194 69.4535 27.6949 69.4535 26.9736C69.4896 26.2164 68.9126 25.8918 67.6505 25.8918C56.5798 25.8918 45.473 25.8918 34.4022 25.8918C34.1859 25.8918 33.9695 25.8918 33.7892 25.8918C33.104 25.9279 32.5992 26.2524 32.5992 26.9736C32.5992 27.6588 33.068 27.9834 33.7171 28.0194C33.9695 28.0555 34.258 28.0194 34.5104 28.0194C40.0277 28.0194 45.5451 28.0194 51.0263 28.0194ZM51.0263 22.6463C51.8918 22.6463 52.7573 22.6463 53.6227 22.6463C58.4549 22.6463 63.2871 22.6463 68.1193 22.6463C68.8405 22.6463 69.4175 22.3939 69.4535 21.6366C69.4896 20.8433 68.9126 20.5548 68.1914 20.5187C68.0472 20.5187 67.9029 20.5187 67.7587 20.5187C56.6158 20.5187 45.4729 20.5187 34.3301 20.5187C34.0777 20.5187 33.7171 20.4466 33.5368 20.5908C33.1761 20.8793 32.7073 21.2399 32.6352 21.6366C32.527 22.2136 32.9958 22.6103 33.6449 22.6463C33.8974 22.6463 34.1859 22.6463 34.4383 22.6463C39.9917 22.6463 45.509 22.6463 51.0263 22.6463ZM51.0624 31.2649C45.509 31.2649 39.9556 31.2649 34.4022 31.2649C33.104 31.2649 32.5631 31.5895 32.5992 32.3467C32.6352 33.068 33.1761 33.3925 34.4022 33.3925C45.509 33.3925 56.6519 33.3925 67.7587 33.3925C68.0471 33.3925 68.4438 33.4646 68.6241 33.3204C68.9847 33.068 69.4896 32.6352 69.4535 32.3467C69.4175 31.9861 68.9487 31.5895 68.552 31.337C68.3356 31.1928 67.975 31.301 67.6505 31.301C62.1331 31.2649 56.6158 31.2649 51.0624 31.2649ZM14.8571 30.6879C14.6047 30.4355 14.3523 30.2552 14.172 30.0388C12.9459 28.8128 11.7198 27.5506 10.4577 26.3245C9.95284 25.8197 9.41193 25.6754 8.87101 26.1803C8.29404 26.7212 8.43828 27.2982 8.97919 27.8391C10.6741 29.534 12.3689 31.2288 14.0638 32.9237C14.6768 33.5007 15.3259 33.5007 15.8308 32.8155C19.3648 28.4521 22.8627 24.0527 26.3606 19.6533C26.7933 19.1123 26.7933 18.4993 26.2524 18.0666C25.7476 17.6699 25.1706 17.7781 24.7379 18.2829C24.6657 18.3911 24.5936 18.4632 24.5215 18.5714C23.043 20.4105 21.6006 22.2136 20.1221 24.0527C18.3911 26.2885 16.6602 28.4521 14.8571 30.6879Z" fill="white"/>
<path d="M78 53.5145C78 55.4258 78 57.337 78 59.2482C52 59.2482 26.0361 59.2482 0 59.2482C0 57.337 0 55.4618 0 53.5145C25.9639 53.5145 51.9279 53.5145 78 53.5145Z" fill="white"/>
<path d="M60.4022 78.0001C46.086 78.0001 31.914 78.0001 17.5978 78.0001C18.6435 76.9543 19.5811 75.9446 20.5908 75.043C20.7711 74.8627 21.1318 74.8627 21.4202 74.8627C23.4757 74.8627 25.5673 74.8267 27.6227 74.8627C28.4521 74.8627 29.1012 74.6824 29.6061 74.0333C30.6879 72.5188 32.1304 72.086 34.0055 72.1582C37.9001 72.3024 41.7947 72.2303 45.7254 72.1942C46.3384 72.1942 46.8433 72.2663 47.2039 72.8073C48.43 74.5382 50.0888 75.1152 52.1803 74.8988C53.6227 74.7546 55.1373 74.8267 56.5797 74.8988C56.9764 74.8988 57.4452 75.1152 57.7337 75.3676C58.6352 76.1249 59.4286 77.0264 60.4022 78.0001Z" fill="white"/>
<path d="M45.2926 69.9944C41.0374 69.9944 36.9625 69.9944 32.7434 69.9944C33.2483 68.9847 33.681 68.0471 34.1858 67.1456C34.294 66.9653 34.6186 66.8571 34.8349 66.8571C37.6116 66.8211 40.4244 66.8211 43.2011 66.8571C43.4535 66.8571 43.7781 67.0374 43.8863 67.2538C44.3551 68.0832 44.7878 68.9847 45.2926 69.9944Z" fill="white"/>
<path d="M43.2372 61.484C43.2372 62.5658 43.2372 63.5395 43.2372 64.5853C40.4244 64.5853 37.6477 64.5853 34.7989 64.5853C34.7989 63.5756 34.7989 62.5658 34.7989 61.484C37.6116 61.484 40.3883 61.484 43.2372 61.484Z" fill="white"/>
</svg>
