<svg width="19" height="22" viewBox="0 0 19 22" fill="none" xmlns="http://www.w3.org/2000/svg">
<path d="M18.9548 8.9916C18.9548 7.62483 17.9918 6.33847 16.6597 5.9204C16.3387 5.82392 16.1461 5.61488 16.0819 5.29329C15.8893 4.44107 15.5683 3.66925 15.1189 3.00999C13.3695 0.46941 10.2719 -0.607924 7.41499 0.340773C5.03963 1.12867 3.5149 2.80095 2.87291 5.35761C2.82476 5.53449 2.72846 5.79176 2.37537 5.88824C0.930887 6.33847 0 7.60875 0 9.13632C0 12.304 0 15.4556 0 18.6233C0 18.8645 0.0160498 19.0896 0.0641991 19.2986C0.401244 20.9387 1.71733 22 3.3865 22C4.79888 22 6.21126 22 7.60759 22H9.03602H9.43726C10.0793 22 10.7052 22 11.3472 22C12.7756 22 14.2682 22 15.7288 21.9839C17.4621 21.9678 18.9387 20.4885 18.9387 18.7519C18.9708 15.8254 18.9708 12.7381 18.9548 8.9916Z" fill="#C4C4C4"/>
<path d="M4.22105 5.22897C4.60624 3.65317 6.32357 1.28947 9.45327 1.24123C11.8928 1.20907 14.2361 2.96175 14.7657 5.22897C14.8233 5.48448 14.629 5.72744 14.3671 5.72744H4.60739C4.34667 5.72744 4.15601 5.48145 4.22105 5.22897Z" fill="white"/>
<path d="M17.727 18.4946C17.7226 18.4946 17.719 18.4983 17.719 18.5027C17.7155 19.865 16.8335 20.7619 15.456 20.7619C14.6214 20.7619 13.7708 20.7619 12.9201 20.7619H8.6188C6.90147 20.7619 5.2002 20.7619 3.48287 20.7619C2.34334 20.7619 1.79765 20.183 1.5248 19.6845C1.34825 19.3469 1.25195 18.9931 1.25195 18.6554C1.25195 15.7933 1.25195 12.8829 1.25195 10.0689V9.072C1.25195 7.93034 2.16679 7.01381 3.27422 7.01381C7.02987 6.99773 10.8337 6.99773 14.5251 6.99773H15.3597C15.5844 6.99773 15.8251 6.99773 16.0659 7.04597C17.0128 7.23892 17.7351 8.13938 17.7351 9.12023V18.4866C17.7351 18.4911 17.7315 18.4946 17.727 18.4946Z" fill="#C4C4C4"/>
<path d="M10.4484 13.4456V14.2818C10.4484 14.5873 10.4484 14.8928 10.4484 15.2144C10.4484 15.4878 10.336 15.729 10.1595 15.9219C9.98293 16.0988 9.74218 16.1953 9.48539 16.1953C8.95575 16.1953 8.53845 15.7611 8.53845 15.2144C8.53845 14.3139 8.53845 13.4135 8.53845 12.513C8.53845 11.9663 8.95575 11.5483 9.50144 11.5483C10.0471 11.5483 10.4644 11.9663 10.4644 12.513C10.4484 12.8185 10.4484 13.1401 10.4484 13.4456Z" fill="white"/>
</svg>
