<svg width="77" height="77" viewBox="0 0 77 77" fill="none" xmlns="http://www.w3.org/2000/svg">
<path d="M44.7684 12.7142C44.7684 12.999 44.7684 13.258 44.7684 13.5169C44.7684 22.1136 44.7684 30.7362 44.7684 39.333C44.7684 40.7571 43.7301 41.6375 42.3544 41.4045C41.394 41.2491 40.7711 40.3946 40.7711 39.2553C40.7711 35.6561 40.7711 32.0568 40.7711 28.4576C40.7711 27.0593 40.7711 25.6611 40.7711 24.2369C40.252 24.2369 39.8107 24.2369 39.3175 24.2369C39.3175 24.5217 39.3175 24.7807 39.3175 25.0137C39.3175 29.7264 39.2916 34.4132 39.3435 39.1258C39.3694 40.3946 38.5388 41.4822 37.3189 41.4563C36.0989 41.4304 35.3202 40.5241 35.3202 39.074C35.3202 30.555 35.3202 22.0359 35.3202 13.5169C35.3202 13.2321 35.3202 12.9731 35.3202 12.6624C34.9049 12.6624 34.5675 12.6624 34.1782 12.6624C34.0743 12.9472 33.9705 13.2321 33.8926 13.5428C33.1399 16.1581 32.4131 18.7733 31.6604 21.3627C31.4008 22.2949 30.9336 22.7092 30.1549 22.7092C29.3762 22.7092 28.935 22.3208 28.6494 21.3886C27.8967 18.7733 27.144 16.1839 26.3912 13.5687C26.1057 12.5588 26.1057 12.5588 24.8598 12.7142C26.1057 17.9447 27.3776 23.1753 28.6494 28.4835C27.5333 28.4835 26.4691 28.4835 25.3011 28.4835C25.3011 28.7942 25.3011 29.0273 25.3011 29.2603C25.3011 32.756 25.3011 36.2516 25.3011 39.7473C25.3011 40.6794 24.756 41.3268 23.8735 41.4563C23.0429 41.5857 22.2642 41.1455 22.0046 40.3169C21.9267 40.0839 21.9267 39.7991 21.9267 39.5401C21.9267 36.1221 21.9267 32.7301 21.9267 29.3121C21.9267 29.079 21.9267 28.846 21.9267 28.5612C21.4336 28.5612 20.9923 28.5612 20.4991 28.5612C20.4991 28.8201 20.4991 29.0531 20.4991 29.2862C20.4991 32.756 20.4991 36.2257 20.4991 39.6955C20.4991 40.6277 19.954 41.275 19.0975 41.4304C18.2669 41.5857 17.5401 41.1714 17.2546 40.3687C17.1508 40.1098 17.1508 39.825 17.1508 39.5401C17.1508 36.1221 17.1508 32.7301 17.1508 29.3121C17.1508 29.079 17.1508 28.846 17.1508 28.5353C16.0346 28.5353 14.9445 28.5353 13.7245 28.5353C15.0223 23.2012 16.2942 17.9447 17.5661 12.6883C16.3721 12.4552 16.3461 12.4811 16.0346 13.5169C15.2559 16.2357 14.4772 18.9546 13.6985 21.6475C13.4909 22.3467 12.9199 22.7351 12.245 22.6833C11.5182 22.6315 10.9212 22.1395 10.8693 21.4663C10.8433 21.2073 10.8953 20.8966 10.9731 20.6377C11.8556 17.5304 12.7382 14.4232 13.6466 11.3159C14.2696 9.21852 15.8789 7.69079 18.3707 7.76847C20.2655 7.84615 22.1863 7.84615 24.0811 7.76847C26.547 7.6649 28.2082 9.21852 28.8311 11.3677C29.2205 12.7142 29.6098 14.0607 29.9992 15.4071C30.0251 15.5366 30.077 15.6402 30.1809 15.925C30.5443 14.6821 30.8298 13.5687 31.1932 12.507C31.4787 11.6007 31.7642 10.6945 32.2055 9.86587C32.9842 8.4676 34.282 7.79437 35.9172 7.76847C38.5648 7.76847 41.2383 7.82026 43.8859 7.74258C46.4036 7.6649 48.0389 9.19263 48.6878 11.3677C49.4924 14.216 50.349 17.0384 51.1277 19.8868C51.3094 20.56 51.6209 20.8448 52.2957 20.8448C54.6059 20.8707 56.916 20.8966 59.2261 20.9484C59.6154 20.9484 60.0048 20.9484 60.3941 21.0002C61.8737 21.1555 63.0936 22.502 63.1196 23.978C63.1196 25.92 63.1196 27.862 63.1196 29.8041C63.1196 30.5809 62.7302 31.0211 62.0813 31.0211C61.4324 31.0211 61.043 30.555 61.043 29.8041C61.043 28.1469 61.043 26.4897 61.043 24.7807C60.6797 24.7807 60.3682 24.7807 59.9788 24.7807C59.9788 25.0396 59.9788 25.2986 59.9788 25.5575C59.9788 30.3996 59.9788 35.2159 59.9788 40.058C59.9788 40.8607 59.6414 41.4045 59.0444 41.6116C58.0321 41.9482 57.1755 41.275 57.1496 40.1357C57.1496 37.9088 57.1496 35.682 57.1496 33.481C57.1496 33.0408 57.1496 32.5747 57.1496 32.0827C56.8122 32.0827 56.5007 32.0827 56.0854 32.0827C56.0854 32.2899 56.0854 32.5229 56.0854 32.7301C56.0854 35.1641 56.0854 37.5981 56.0854 40.0321C56.0854 41.0679 55.5403 41.6893 54.6837 41.6893C53.8272 41.6893 53.2561 41.042 53.2561 40.0321C53.2561 34.8534 53.2561 29.6746 53.2561 24.4958C53.2561 24.2369 53.2561 23.978 53.2561 23.6414C52.2957 23.3824 51.3354 23.0458 50.349 22.8386C49.2069 22.6056 48.6359 22.0359 48.3763 20.8707C47.8053 18.4108 47.0525 16.0027 46.3777 13.5687C46.0143 12.5588 46.0143 12.5588 44.7684 12.7142Z" fill="white"/>
<path d="M58.4733 76.7494C53.6714 76.7494 48.9473 76.7494 44.2752 76.7494C44.2492 76.6976 44.2233 76.6976 44.2233 76.6717C44.2233 73.3832 43.8858 70.0688 44.4569 66.8062C44.7684 65.0454 45.7287 63.5954 46.9487 62.3525C52.4255 56.8371 57.9283 51.3476 63.431 45.8323C64.6769 44.5894 66.6756 44.5376 67.8696 45.7028C69.1933 46.9716 69.2453 48.8359 67.9474 50.2342C65.4816 52.9013 62.9898 55.5424 60.4979 58.1836C59.0444 59.7113 58.0321 61.4462 57.9023 63.6213C57.9023 63.699 57.9023 63.8025 57.9023 63.8802C57.9023 63.932 57.9283 63.9579 57.9542 64.0615C58.7589 64.0615 59.5635 64.0615 60.4201 64.0615C60.446 63.932 60.472 63.8025 60.4979 63.6472C60.6018 62.3784 61.1728 61.3426 62.0034 60.4104C64.5991 57.5621 67.1428 54.6361 69.8422 51.8655C72.8013 48.81 71.6592 44.667 68.5704 43.0616C68.3887 42.9839 68.233 42.6732 68.233 42.4661C68.207 37.4168 68.207 32.3675 68.233 27.3182C68.233 25.2985 70.1278 23.5636 72.2302 23.5895C74.2808 23.6154 76.1497 25.3244 76.1756 27.3182C76.2016 34.5426 76.2275 41.7669 76.1497 48.9913C76.1237 51.995 74.9557 54.6102 72.8792 56.8112C68.5185 61.4203 64.1578 66.0553 59.7971 70.6644C58.8627 71.6483 58.4733 72.8136 58.4993 74.1341C58.4733 74.9627 58.4733 75.8431 58.4733 76.7494Z" fill="white"/>
<path d="M15.6971 64.0615C16.0346 64.0615 16.3201 64.0615 16.5797 64.0615C17.1247 64.0615 17.6439 64.0615 18.2409 64.0615C18.2928 62.9998 18.137 62.0159 17.6698 61.1355C17.1507 60.1774 16.5797 59.2193 15.8529 58.4166C13.3611 55.6719 10.7914 52.9789 8.24765 50.2601C6.69027 48.577 7.10557 46.1171 9.10421 45.159C10.2723 44.6152 11.7258 44.8224 12.6602 45.7546C18.2149 51.2958 23.7436 56.8371 29.2724 62.4043C30.9855 64.1391 31.9199 66.2365 31.9718 68.6706C32.0237 71.3376 31.9718 74.0047 31.9718 76.7494C27.2218 76.7494 22.5237 76.7494 17.6958 76.7494C17.6958 76.0244 17.6698 75.2735 17.6958 74.5225C17.7477 72.8653 17.2026 71.493 16.0086 70.276C11.6739 65.7705 7.36513 61.2132 3.10828 56.63C1.03177 54.4031 0.0194673 51.7101 0.0194673 48.6806C-0.0064891 41.6116 -0.0064891 34.5426 0.0194673 27.4477C0.0194673 25.3244 1.88833 23.5636 4.01676 23.5895C6.17114 23.6154 7.96213 25.3762 7.96213 27.4995C7.96213 32.4452 7.96213 37.3909 7.96213 42.3107C7.96213 42.6991 7.83235 42.9063 7.49492 43.1134C4.22441 44.9778 3.60145 48.81 6.14518 51.6066C8.74082 54.4549 11.3624 57.3291 13.9581 60.1774C14.9963 61.239 15.6971 62.456 15.6971 64.0615Z" fill="white"/>
<path d="M17.7477 3.4183C17.7477 1.55394 19.2532 0.0262128 21.148 0.000319054C23.0687 -0.0255747 24.6261 1.52805 24.6261 3.4183C24.6261 5.28265 23.0687 6.81038 21.1999 6.81038C19.331 6.81038 17.7477 5.28265 17.7477 3.4183Z" fill="white"/>
<path d="M39.4992 6.78452C37.5784 6.73273 36.1249 5.17911 36.1768 3.28886C36.2287 1.50219 37.838 0.000355382 39.629 0.0521429C41.5238 0.10393 43.0033 1.65756 42.9514 3.5478C42.9514 5.36036 41.394 6.83631 39.4992 6.78452Z" fill="white"/>
</svg>
