<svg width="106" height="92" viewBox="0 0 106 92" fill="none" xmlns="http://www.w3.org/2000/svg">
<path d="M71.633 91.1552C61.4585 91.1552 51.2466 91.1552 41.0721 91.1552C40.0995 91.1552 39.0147 91.1927 38.3788 90.3665C37.8925 89.7281 37.4437 88.8643 37.4437 88.1132C37.4062 74.7062 37.4062 61.3367 37.4062 47.9297C37.4062 46.3148 38.3788 45.2257 39.9873 45.0004C40.3613 44.9628 40.7354 44.9253 41.1095 44.9253C61.5333 44.9253 81.9571 44.9253 102.344 44.9253C103.653 44.9253 104.887 45.1131 105.56 46.3899C105.822 46.8781 105.972 47.5166 105.972 48.0799C106.009 61.4118 106.009 74.7437 105.972 88.0757C105.972 89.8783 104.887 91.0049 103.129 91.1552C102.755 91.1927 102.381 91.1927 102.007 91.1927C91.9072 91.1552 81.7701 91.1552 71.633 91.1552ZM81.5457 62.9516C77.3187 58.7079 73.0918 54.4642 68.8649 50.2581C68.6779 50.0703 68.1916 49.9952 67.855 50.0703C65.9472 50.4458 64.0769 50.8965 62.2066 51.272C61.6081 51.3847 61.4585 51.6851 61.3463 52.1734C60.9722 54.0135 60.5981 55.8537 60.1867 57.6563C60.037 58.2948 60.1867 58.6703 60.6355 59.121C64.6006 63.0642 68.5283 67.0075 72.4559 70.9883C72.6804 71.2136 72.9048 71.4014 73.0544 71.5516C75.8973 68.6223 78.7028 65.8057 81.5457 62.9516Z" fill="white"/>
<path d="M30.4113 28.4388C20.3116 23.2187 10.2493 18.0737 0 12.7785C1.12219 11.6894 2.09475 10.6754 3.17953 9.73653C3.36656 9.54876 3.81544 9.54876 4.11469 9.62387C16.1969 12.0649 28.2791 14.506 40.3614 17.0221C41.3339 17.2099 41.9324 17.0597 42.6431 16.3462C47.5808 11.3138 52.5184 6.35661 57.4934 1.39938C59.663 -0.778792 62.9173 -0.36569 64.3762 2.3007C65.1991 3.84044 65.0495 5.30507 64.0769 6.6946C63.7777 7.1077 63.441 7.44569 63.067 7.82124C58.1293 12.7409 53.1917 17.6981 48.2541 22.6554C47.8426 23.0685 47.693 23.4064 47.8052 24.0449C49.077 30.1287 50.274 36.2502 51.5084 42.334C51.5458 42.4467 51.5458 42.5594 51.5832 42.8222C51.2466 42.8222 50.9847 42.8598 50.6855 42.8598C47.6556 42.8598 44.6257 42.8598 41.6332 42.8598C40.9599 42.8598 40.6606 42.6345 40.3614 42.0336C39.127 39.555 37.8551 37.0764 36.5459 34.5226C36.3215 34.748 36.097 34.8982 35.91 35.086C31.0846 39.893 26.2966 44.7375 21.4712 49.5445C21.0597 49.9201 20.9475 50.2956 21.0597 50.859C21.546 53.1498 21.9949 55.4406 22.4438 57.769C22.4812 58.0695 22.4438 58.4826 22.2567 58.6703C21.3216 59.6843 20.349 60.6607 19.3016 61.7123C19.0772 61.2992 18.9276 61.0363 18.7779 60.7358C17.2817 57.8066 15.8229 54.8773 14.2892 51.9856C14.0273 51.4974 13.5785 51.0467 13.0922 50.7838C10.1745 49.2441 7.21941 47.7419 4.30172 46.2397C4.03988 46.0895 3.77803 45.9393 3.36656 45.714C4.45135 44.6624 5.42391 43.6484 6.47128 42.7096C6.65832 42.5594 7.03238 42.4842 7.29422 42.5594C9.65082 43.01 12.0074 43.4982 14.364 43.9489C14.6633 43.9864 15.1121 43.9113 15.3366 43.686C20.2368 38.7663 25.2118 33.7716 30.1495 28.7768C30.2243 28.7017 30.2991 28.589 30.4113 28.4388Z" fill="white"/>
<path d="M88.0918 42.8223C86.2963 42.8223 84.6504 42.8223 82.8175 42.8223C82.8175 41.9961 82.8175 41.1323 82.8175 40.3061C82.8175 38.2406 81.7327 37.114 79.6379 37.0764C76.6828 37.0389 73.7278 37.0764 70.7727 37.0764C68.4909 37.0764 66.2091 37.0764 63.9647 37.0764C61.6829 37.0764 60.5982 38.2031 60.5982 40.4939C60.5982 41.245 60.5982 41.9961 60.5982 42.7847C58.8401 42.7847 57.1568 42.7847 55.4361 42.7847C54.875 38.3157 55.8476 34.5978 60.0371 32.6074C61.1967 32.0441 62.6181 31.8188 63.9273 31.7812C69.1268 31.7061 74.3263 31.7061 79.5257 31.7437C84.6878 31.7812 88.0918 35.2362 88.0918 40.4188C88.0918 41.2074 88.0918 41.9585 88.0918 42.8223Z" fill="white"/>
<path d="M65.1617 56.5297C64.4136 56.4921 63.8525 55.8537 63.8525 55.1026C63.8899 54.314 64.5632 53.6755 65.3113 53.7506C66.0595 53.7882 66.658 54.4642 66.6205 55.2153C66.6205 55.9664 65.9472 56.5672 65.1617 56.5297Z" fill="white"/>
</svg>
