<svg width="16" height="24" viewBox="0 0 16 24" fill="none" xmlns="http://www.w3.org/2000/svg">
<path d="M16 21.1989C16 22.7459 14.7459 24 13.1989 24H2.80106C1.25408 24 0 22.7459 0 21.1989C0 16.8417 3.59066 13.3333 7.98564 13.3333C10.1975 13.3333 12.1795 14.2104 13.6445 15.6251C15.0808 17.0681 16 19.0203 16 21.1989Z" fill="#C4C4C4"/>
<path d="M7.99996 10.6667C10.9455 10.6667 13.3333 8.27885 13.3333 5.33333C13.3333 2.38781 10.9455 0 7.99996 0C5.05444 0 2.66663 2.38781 2.66663 5.33333C2.66663 8.27885 5.05444 10.6667 7.99996 10.6667Z" fill="#C4C4C4"/>
</svg>
